<?xml version="1.0" encoding="UTF-8" standalone="no"?>
<!-- Created with Inkscape (http://www.inkscape.org/) -->

<svg
   width="4096"
   height="512"
   viewBox="0 0 1083.7333 135.46667"
   version="1.1"
   id="svg1"
   inkscape:version="1.3 (0e150ed6c4, 2023-07-21)"
   sodipodi:docname="keepabove.svg"
   xml:space="preserve"
   xmlns:inkscape="http://www.inkscape.org/namespaces/inkscape"
   xmlns:sodipodi="http://sodipodi.sourceforge.net/DTD/sodipodi-0.dtd"
   xmlns="http://www.w3.org/2000/svg"
   xmlns:svg="http://www.w3.org/2000/svg"
   xmlns:rdf="http://www.w3.org/1999/02/22-rdf-syntax-ns#"
   xmlns:cc="http://creativecommons.org/ns#"
   xmlns:dc="http://purl.org/dc/elements/1.1/"><defs
     id="defs1"><linearGradient
       id="linearGradient30939"
       inkscape:swatch="solid"><stop
         style="stop-color:#8cd2f2;stop-opacity:1;"
         offset="0"
         id="stop30937" /></linearGradient></defs><sodipodi:namedview
     id="base"
     pagecolor="#ffffff"
     bordercolor="#000000"
     borderopacity="0.3"
     inkscape:pageopacity="0.0"
     inkscape:pageshadow="2"
     inkscape:zoom="0.24748737"
     inkscape:cx="2034.4473"
     inkscape:cy="145.46197"
     inkscape:document-units="px"
     inkscape:showpageshadow="2"
     inkscape:pagecheckerboard="0"
     inkscape:deskcolor="#d1d1d1"
     inkscape:window-width="1920"
     inkscape:window-height="1012"
     inkscape:window-x="1920"
     inkscape:window-y="0"
     inkscape:window-maximized="1"
     inkscape:current-layer="svg1" /><metadata
     id="metadata1"><rdf:RDF><cc:Work
         rdf:about=""><dc:format>image/svg+xml</dc:format><dc:type
           rdf:resource="http://purl.org/dc/dcmitype/StillImage" /></cc:Work></rdf:RDF></metadata><g
     id="deactivated-inactive-center"
     inkscape:highlight-color="#5aa9e6"
     transform="translate(948.26666)"><rect
       style="fill:none;fill-rule:evenodd;stroke:none;stroke-width:1.16179;stroke-linecap:round;stroke-linejoin:round;stroke-dasharray:none;stroke-opacity:1"
       id="rect8"
       width="135.46667"
       height="135.46667"
       x="0"
       y="0"
       inkscape:label="active-area"
       inkscape:highlight-color="#909191" /><path
       style="display:inline;fill:#909191;fill-opacity:1;fill-rule:evenodd;stroke:#909191;stroke-width:5.29166;stroke-linecap:round;stroke-linejoin:round;stroke-opacity:1"
       d="m 28.045851,67.733332 c 0,-39.687795 5.85e-4,-39.687482 39.687483,-39.687482 39.686896,0 39.687486,6.12e-4 39.687486,39.687482 0,39.686868 0.003,39.687488 -39.687486,39.687488 -39.690306,0 -39.687483,3.2e-4 -39.687483,-39.687488 z"
       id="path9"
       sodipodi:nodetypes="zzzzz"
       inkscape:label="shape"
       inkscape:highlight-color="#f25757" /></g><g
     id="deactivated-center"
     inkscape:highlight-color="#5aa9e6"
     transform="translate(812.8)"><rect
       style="fill:none;fill-rule:evenodd;stroke:none;stroke-width:1.16179;stroke-linecap:round;stroke-linejoin:round;stroke-dasharray:none;stroke-opacity:1"
       id="rect7"
       width="135.46667"
       height="135.46667"
       x="0"
       y="0"
       inkscape:label="active-area"
       inkscape:highlight-color="#909191" /><path
       style="display:inline;fill:#909191;fill-opacity:1;fill-rule:evenodd;stroke:#909191;stroke-width:5.29166;stroke-linecap:round;stroke-linejoin:round;stroke-opacity:1"
       d="m 28.045851,67.733332 c 0,-39.687795 5.85e-4,-39.687482 39.687483,-39.687482 39.686896,0 39.687486,6.12e-4 39.687486,39.687482 0,39.686868 0.003,39.687488 -39.687486,39.687488 -39.690306,0 -39.687483,3.2e-4 -39.687483,-39.687488 z"
       id="path8"
       sodipodi:nodetypes="zzzzz"
       inkscape:label="shape"
       inkscape:highlight-color="#f25757" /></g><g
     id="pressed-inactive-center"
     inkscape:highlight-color="#5aa9e6"
     transform="translate(677.33333)"><rect
       style="fill:none;fill-rule:evenodd;stroke:none;stroke-width:1.16179;stroke-linecap:round;stroke-linejoin:round;stroke-dasharray:none;stroke-opacity:1"
       id="rect6"
       width="135.46667"
       height="135.46667"
       x="0"
       y="0"
       inkscape:label="active-area"
       inkscape:highlight-color="#909191" /><path
       style="display:inline;fill:#15598e;fill-opacity:1;fill-rule:evenodd;stroke:#15598e;stroke-width:5.29166;stroke-linecap:round;stroke-linejoin:round;stroke-opacity:1"
       d="m 28.045851,67.733332 c 0,-39.687795 5.85e-4,-39.687482 39.687483,-39.687482 39.686896,0 39.687486,6.12e-4 39.687486,39.687482 0,39.686868 0.003,39.687488 -39.687486,39.687488 -39.690306,0 -39.687483,3.2e-4 -39.687483,-39.687488 z"
       id="path7"
       sodipodi:nodetypes="zzzzz"
       inkscape:label="shape"
       inkscape:highlight-color="#f25757" /></g><g
     id="pressed-center"
     inkscape:highlight-color="#5aa9e6"
     transform="translate(541.86666)"><rect
       style="fill:none;fill-rule:evenodd;stroke:none;stroke-width:1.16179;stroke-linecap:round;stroke-linejoin:round;stroke-dasharray:none;stroke-opacity:1"
       id="rect5"
       width="135.46667"
       height="135.46667"
       x="0"
       y="0"
       inkscape:label="active-area"
       inkscape:highlight-color="#909191" /><path
       style="display:inline;fill:#15598e;fill-opacity:1;fill-rule:evenodd;stroke:#15598e;stroke-width:5.29166;stroke-linecap:round;stroke-linejoin:round;stroke-opacity:1"
       d="m 28.045851,67.733332 c 0,-39.687795 5.85e-4,-39.687482 39.687483,-39.687482 39.686896,0 39.687486,6.12e-4 39.687486,39.687482 0,39.686868 0.003,39.687488 -39.687486,39.687488 -39.690306,0 -39.687483,3.2e-4 -39.687483,-39.687488 z"
       id="path6"
       sodipodi:nodetypes="zzzzz"
       inkscape:label="shape"
       inkscape:highlight-color="#f25757" /></g><g
     id="hover-inactive-center"
     inkscape:highlight-color="#5aa9e6"
     transform="translate(406.4)"><rect
       style="fill:none;fill-rule:evenodd;stroke:none;stroke-width:1.16179;stroke-linecap:round;stroke-linejoin:round;stroke-dasharray:none;stroke-opacity:1"
       id="rect4"
       width="135.46667"
       height="135.46667"
       x="0"
       y="0"
       inkscape:label="active-area"
       inkscape:highlight-color="#909191" /><path
       style="display:inline;fill:#add4f3;fill-opacity:1;fill-rule:evenodd;stroke:#add4f3;stroke-width:5.29166;stroke-linecap:round;stroke-linejoin:round;stroke-opacity:1"
       d="m 28.045851,67.733332 c 0,-39.687795 5.85e-4,-39.687482 39.687483,-39.687482 39.686896,0 39.687486,6.12e-4 39.687486,39.687482 0,39.686868 0.003,39.687488 -39.687486,39.687488 -39.690306,0 -39.687483,3.2e-4 -39.687483,-39.687488 z"
       id="path5"
       sodipodi:nodetypes="zzzzz"
       inkscape:label="shape"
       inkscape:highlight-color="#f25757" /></g><g
     id="hover-center"
     inkscape:highlight-color="#5aa9e6"
     transform="translate(270.93333)"><rect
       style="fill:none;fill-rule:evenodd;stroke:none;stroke-width:1.16179;stroke-linecap:round;stroke-linejoin:round;stroke-dasharray:none;stroke-opacity:1"
       id="rect3"
       width="135.46667"
       height="135.46667"
       x="0"
       y="0"
       inkscape:label="active-area"
       inkscape:highlight-color="#909191" /><path
       style="display:inline;fill:#add4f3;fill-opacity:1;fill-rule:evenodd;stroke:#add4f3;stroke-width:5.29166;stroke-linecap:round;stroke-linejoin:round;stroke-opacity:1"
       d="m 28.045851,67.733332 c 0,-39.687795 5.85e-4,-39.687482 39.687483,-39.687482 39.686896,0 39.687486,6.12e-4 39.687486,39.687482 0,39.686868 0.003,39.687488 -39.687486,39.687488 -39.690306,0 -39.687483,3.2e-4 -39.687483,-39.687488 z"
       id="path4"
       sodipodi:nodetypes="zzzzz"
       inkscape:label="shape"
       inkscape:highlight-color="#f25757" /></g><g
     id="inactive-center"
     inkscape:highlight-color="#5aa9e6"
     transform="translate(135.46667)"><rect
       style="fill:none;fill-rule:evenodd;stroke:none;stroke-width:1.16179;stroke-linecap:round;stroke-linejoin:round;stroke-dasharray:none;stroke-opacity:1"
       id="rect2"
       width="135.46667"
       height="135.46667"
       x="0"
       y="0"
       inkscape:label="active-area"
       inkscape:highlight-color="#909191" /><path
       style="display:inline;fill:#add4f3;fill-opacity:1;fill-rule:evenodd;stroke:#add4f3;stroke-width:5.29166;stroke-linecap:round;stroke-linejoin:round;stroke-opacity:1"
       d="m 28.045851,67.733332 c 0,-39.687795 5.85e-4,-39.687482 39.687483,-39.687482 39.686896,0 39.687486,6.12e-4 39.687486,39.687482 0,39.686868 0.003,39.687488 -39.687486,39.687488 -39.690306,0 -39.687483,3.2e-4 -39.687483,-39.687488 z"
       id="path2"
       sodipodi:nodetypes="zzzzz"
       inkscape:label="shape"
       inkscape:highlight-color="#f25757" /></g><g
     id="active-center"
     inkscape:highlight-color="#5aa9e6"><rect
       style="fill:none;fill-rule:evenodd;stroke:none;stroke-width:1.16179;stroke-linecap:round;stroke-linejoin:round;stroke-dasharray:none;stroke-opacity:1"
       id="rect1"
       width="135.46667"
       height="135.46667"
       x="0"
       y="0"
       inkscape:label="active-area"
       inkscape:highlight-color="#909191" /><path
       style="display:inline;fill:#5aa9e6;fill-opacity:1;fill-rule:evenodd;stroke:#5aa9e6;stroke-width:5.29166;stroke-linecap:round;stroke-linejoin:round;stroke-opacity:1"
       d="m 28.045851,67.733332 c 0,-39.687795 5.85e-4,-39.687482 39.687483,-39.687482 39.686896,0 39.687486,6.12e-4 39.687486,39.687482 0,39.686868 0.003,39.687488 -39.687486,39.687488 -39.690306,0 -39.687483,3.2e-4 -39.687483,-39.687488 z"
       id="path3"
       sodipodi:nodetypes="zzzzz"
       inkscape:label="shape"
       inkscape:highlight-color="#f25757" /></g></svg>
