<?xml version="1.0" encoding="UTF-8" standalone="no"?>
<!-- Created with Inkscape (http://www.inkscape.org/) -->

<svg
   width="4096"
   height="512"
   viewBox="0 0 1083.7333 135.46667"
   version="1.1"
   id="svg1"
   inkscape:version="1.3 (0e150ed6c4, 2023-07-21)"
   sodipodi:docname="shade.svg"
   xml:space="preserve"
   inkscape:export-filename="shade.png"
   inkscape:export-xdpi="96"
   inkscape:export-ydpi="96"
   xmlns:inkscape="http://www.inkscape.org/namespaces/inkscape"
   xmlns:sodipodi="http://sodipodi.sourceforge.net/DTD/sodipodi-0.dtd"
   xmlns="http://www.w3.org/2000/svg"
   xmlns:svg="http://www.w3.org/2000/svg"
   xmlns:rdf="http://www.w3.org/1999/02/22-rdf-syntax-ns#"
   xmlns:cc="http://creativecommons.org/ns#"
   xmlns:dc="http://purl.org/dc/elements/1.1/"><defs
     id="defs1"><linearGradient
       id="linearGradient30939"
       inkscape:swatch="solid"><stop
         style="stop-color:#8cd2f2;stop-opacity:1;"
         offset="0"
         id="stop30937" /></linearGradient></defs><sodipodi:namedview
     id="base"
     pagecolor="#ffffff"
     bordercolor="#000000"
     borderopacity="0.3"
     inkscape:pageopacity="0.0"
     inkscape:pageshadow="2"
     inkscape:zoom="0.175"
     inkscape:cx="1854.2857"
     inkscape:cy="325.71429"
     inkscape:document-units="px"
     inkscape:showpageshadow="2"
     inkscape:pagecheckerboard="0"
     inkscape:deskcolor="#d1d1d1"
     inkscape:window-width="1920"
     inkscape:window-height="1056"
     inkscape:window-x="1920"
     inkscape:window-y="0"
     inkscape:window-maximized="1"
     inkscape:current-layer="svg1" /><metadata
     id="metadata1"><rdf:RDF><cc:Work
         rdf:about=""><dc:format>image/svg+xml</dc:format><dc:type
           rdf:resource="http://purl.org/dc/dcmitype/StillImage" /></cc:Work></rdf:RDF></metadata><g
     id="deactivated-inactive-center"
     inkscape:highlight-color="#525252"
     transform="translate(948.26666)"><rect
       style="fill:none;fill-rule:evenodd;stroke:none;stroke-width:1.16179;stroke-linecap:round;stroke-linejoin:round;stroke-dasharray:none;stroke-opacity:1"
       id="rect8"
       width="135.46667"
       height="135.46667"
       x="0"
       y="0"
       inkscape:label="active-area"
       inkscape:highlight-color="#000000" /><path
       style="display:inline;fill:#525252;fill-opacity:1;fill-rule:evenodd;stroke:none;stroke-width:5.64445;stroke-linecap:round;stroke-linejoin:round;stroke-dasharray:none;stroke-opacity:1"
       d="M 25.400004,67.733331 C 25.400004,25.399666 25.400628,25.4 67.733336,25.4 c 42.332714,0 42.333344,6.53e-4 42.333344,42.333331 0,42.332679 0.003,42.333339 -42.333344,42.333339 -42.336343,0 -42.333332,3.4e-4 -42.333332,-42.333339 z"
       id="path14"
       sodipodi:nodetypes="zzzzz"
       inkscape:label="shape"
       inkscape:highlight-color="#525252" /></g><g
     id="deactivated-center"
     inkscape:highlight-color="#525252"
     transform="translate(812.8)"><rect
       style="fill:none;fill-rule:evenodd;stroke:none;stroke-width:1.16179;stroke-linecap:round;stroke-linejoin:round;stroke-dasharray:none;stroke-opacity:1"
       id="rect7"
       width="135.46667"
       height="135.46667"
       x="0"
       y="0"
       inkscape:label="active-area"
       inkscape:highlight-color="#000000" /><path
       style="display:inline;fill:#525252;fill-opacity:1;fill-rule:evenodd;stroke:none;stroke-width:5.64445;stroke-linecap:round;stroke-linejoin:round;stroke-dasharray:none;stroke-opacity:1"
       d="M 25.399997,67.733331 C 25.399997,25.399666 25.400621,25.4 67.733329,25.4 c 42.332721,0 42.333351,6.53e-4 42.333351,42.333331 0,42.332679 0.003,42.333339 -42.333351,42.333339 -42.336343,0 -42.333332,3.4e-4 -42.333332,-42.333339 z"
       id="path13"
       sodipodi:nodetypes="zzzzz"
       inkscape:label="shape"
       inkscape:highlight-color="#525252" /></g><g
     id="pressed-inactive-center"
     inkscape:highlight-color="#ba6612"
     transform="translate(677.33333)"><rect
       style="fill:none;fill-rule:evenodd;stroke:none;stroke-width:1.16179;stroke-linecap:round;stroke-linejoin:round;stroke-dasharray:none;stroke-opacity:1"
       id="rect6"
       width="135.46667"
       height="135.46667"
       x="0"
       y="0"
       inkscape:label="active-area"
       inkscape:highlight-color="#000000" /><path
       style="display:inline;fill:#ba6612;fill-opacity:1;fill-rule:evenodd;stroke:none;stroke-width:5.64445;stroke-linecap:round;stroke-linejoin:round;stroke-dasharray:none;stroke-opacity:1"
       d="M 25.400001,67.733331 C 25.400001,25.399666 25.400625,25.4 67.733333,25.4 c 42.332717,0 42.333347,6.53e-4 42.333347,42.333331 0,42.332679 0.003,42.333339 -42.333347,42.333339 -42.336343,0 -42.333332,3.4e-4 -42.333332,-42.333339 z"
       id="path12"
       sodipodi:nodetypes="zzzzz"
       inkscape:label="shape"
       inkscape:highlight-color="#ba6612" /></g><g
     id="pressed-center"
     inkscape:highlight-color="#ba6612"
     transform="translate(541.86666)"><rect
       style="fill:none;fill-rule:evenodd;stroke:none;stroke-width:1.16179;stroke-linecap:round;stroke-linejoin:round;stroke-dasharray:none;stroke-opacity:1"
       id="rect5"
       width="135.46667"
       height="135.46667"
       x="0"
       y="0"
       inkscape:label="active-area"
       inkscape:highlight-color="#000000" /><path
       style="display:inline;fill:#ba6612;fill-opacity:1;fill-rule:evenodd;stroke:none;stroke-width:5.64445;stroke-linecap:round;stroke-linejoin:round;stroke-dasharray:none;stroke-opacity:1"
       d="M 25.400005,67.733331 C 25.400005,25.399666 25.400629,25.4 67.733337,25.4 c 42.332713,0 42.333343,6.53e-4 42.333343,42.333331 0,42.332679 0.003,42.333339 -42.333343,42.333339 -42.336343,0 -42.333332,3.4e-4 -42.333332,-42.333339 z"
       id="path11"
       sodipodi:nodetypes="zzzzz"
       inkscape:label="shape"
       inkscape:highlight-color="#ba6612" /></g><g
     id="hover-inactive-center"
     inkscape:highlight-color="#f6cca2"
     transform="translate(406.4)"><rect
       style="fill:none;fill-rule:evenodd;stroke:none;stroke-width:1.16179;stroke-linecap:round;stroke-linejoin:round;stroke-dasharray:none;stroke-opacity:1"
       id="rect4"
       width="135.46667"
       height="135.46667"
       x="0"
       y="0"
       inkscape:label="active-area"
       inkscape:highlight-color="#000000" /><path
       style="display:inline;fill:#f6cca2;fill-opacity:1;fill-rule:evenodd;stroke:none;stroke-width:5.64445;stroke-linecap:round;stroke-linejoin:round;stroke-dasharray:none;stroke-opacity:1"
       d="M 25.399999,67.733331 C 25.399999,25.399666 25.400623,25.4 67.733331,25.4 c 42.332709,0 42.333339,6.53e-4 42.333339,42.333331 0,42.332679 0.003,42.333339 -42.333339,42.333339 -42.336343,0 -42.333332,3.4e-4 -42.333332,-42.333339 z"
       id="path2"
       sodipodi:nodetypes="zzzzz"
       inkscape:label="shape"
       inkscape:highlight-color="#f6cca2" /></g><g
     id="hover-center"
     inkscape:highlight-color="#f6cca2"
     transform="translate(270.93333)"><rect
       style="fill:none;fill-rule:evenodd;stroke:none;stroke-width:1.16179;stroke-linecap:round;stroke-linejoin:round;stroke-dasharray:none;stroke-opacity:1"
       id="rect3"
       width="135.46667"
       height="135.46667"
       x="0"
       y="0"
       inkscape:label="active-area"
       inkscape:highlight-color="#000000" /><path
       style="display:inline;fill:#f6cca2;fill-opacity:1;fill-rule:evenodd;stroke:none;stroke-width:5.64445;stroke-linecap:round;stroke-linejoin:round;stroke-dasharray:none;stroke-opacity:1"
       d="M 25.400002,67.733331 C 25.400002,25.399666 25.400626,25.4 67.733334,25.4 c 42.332716,0 42.333346,6.53e-4 42.333346,42.333331 0,42.332679 0.003,42.333339 -42.333346,42.333339 -42.336343,0 -42.333332,3.4e-4 -42.333332,-42.333339 z"
       id="path1"
       sodipodi:nodetypes="zzzzz"
       inkscape:label="shape"
       inkscape:highlight-color="#f6cca2" /></g><g
     id="inactive-center"
     inkscape:highlight-color="#f6cca2"
     transform="translate(135.46667)"><rect
       style="fill:none;fill-rule:evenodd;stroke:none;stroke-width:1.16179;stroke-linecap:round;stroke-linejoin:round;stroke-dasharray:none;stroke-opacity:1"
       id="rect2"
       width="135.46667"
       height="135.46667"
       x="0"
       y="0"
       inkscape:label="active-area"
       inkscape:highlight-color="#000000" /><path
       style="display:inline;fill:#f6cca2;fill-opacity:1;fill-rule:evenodd;stroke:none;stroke-width:5.64445;stroke-linecap:round;stroke-linejoin:round;stroke-dasharray:none;stroke-opacity:1"
       d="M 25.399996,67.733331 C 25.399996,25.399666 25.40062,25.4 67.733328,25.4 c 42.332712,0 42.333342,6.53e-4 42.333342,42.333331 0,42.332679 0.003,42.333339 -42.333342,42.333339 -42.336343,0 -42.333332,3.4e-4 -42.333332,-42.333339 z"
       id="path10"
       sodipodi:nodetypes="zzzzz"
       inkscape:label="shape"
       inkscape:highlight-color="#f6cca2" /></g><g
     id="active-center"
     inkscape:highlight-color="#efa65d"><rect
       style="fill:none;fill-rule:evenodd;stroke:none;stroke-width:1.16179;stroke-linecap:round;stroke-linejoin:round;stroke-dasharray:none;stroke-opacity:1"
       id="rect1"
       width="135.46667"
       height="135.46667"
       x="0"
       y="0"
       inkscape:label="active-area"
       inkscape:highlight-color="#000000" /><path
       style="display:inline;fill:#efa65d;fill-opacity:1;fill-rule:evenodd;stroke:none;stroke-width:5.64445;stroke-linecap:round;stroke-linejoin:round;stroke-dasharray:none;stroke-opacity:1"
       d="M 25.4,67.733331 C 25.4,25.399666 25.400624,25.4 67.733332,25.4 c 42.332708,0 42.333338,6.53e-4 42.333338,42.333331 0,42.332679 0.003,42.333339 -42.333338,42.333339 C 25.396989,110.06667 25.4,110.06701 25.4,67.733331 Z"
       id="path3"
       sodipodi:nodetypes="zzzzz"
       inkscape:label="shape"
       inkscape:highlight-color="#efa65d" /></g></svg>
